G04*
G04 #@! TF.GenerationSoftware,Altium Limited,Altium Designer,20.2.6 (244)*
G04*
G04 Layer_Physical_Order=1*
G04 Layer_Color=255*
%FSLAX25Y25*%
%MOIN*%
G70*
G04*
G04 #@! TF.SameCoordinates,3D68E59D-D58F-4EE4-A00C-4EB088E58223*
G04*
G04*
G04 #@! TF.FilePolarity,Positive*
G04*
G01*
G75*
%ADD11C,0.01000*%
%ADD17R,0.04724X0.13780*%
%ADD18R,0.05000X0.06000*%
%ADD19R,0.03543X0.03150*%
%ADD20R,0.08346X0.05512*%
%ADD21R,0.03150X0.03150*%
%ADD22R,0.07874X0.06272*%
%ADD23R,0.05906X0.03000*%
%ADD24R,0.03150X0.03543*%
%ADD45R,0.03175X0.03402*%
%ADD46R,0.03402X0.03175*%
%ADD47R,0.04331X0.02165*%
%ADD48R,0.04331X0.01181*%
%ADD49R,0.03150X0.01102*%
%ADD50R,0.01102X0.03150*%
%ADD51R,0.13386X0.13386*%
%ADD52C,0.03500*%
%ADD53C,0.05000*%
%ADD54R,0.05953X0.17957*%
%ADD55R,0.13386X0.13386*%
%ADD56O,0.07874X0.04331*%
%ADD57O,0.07087X0.04724*%
%ADD58R,0.06000X0.08000*%
%ADD59O,0.06000X0.08000*%
%ADD60C,0.02000*%
%ADD61C,0.03000*%
G36*
X307442Y296058D02*
X163558D01*
X163558Y376942D01*
X307442D01*
Y296058D01*
D02*
G37*
%LPC*%
G36*
X178685Y373823D02*
X173960D01*
Y369099D01*
X175010D01*
Y367223D01*
X174494D01*
Y362247D01*
X179244D01*
Y367223D01*
X177635D01*
Y369099D01*
X178685D01*
Y373823D01*
D02*
G37*
G36*
X185097Y360634D02*
X180372D01*
Y355909D01*
X181422D01*
Y353334D01*
X180508D01*
Y348610D01*
X185232D01*
Y349659D01*
X187289D01*
X187803Y349316D01*
X188500Y349178D01*
X189197Y349316D01*
X189789Y349711D01*
X190184Y350303D01*
X190322Y351000D01*
X190184Y351697D01*
X189789Y352289D01*
X189197Y352684D01*
X188500Y352822D01*
X187803Y352684D01*
X187211Y352289D01*
X187208Y352285D01*
X185232D01*
Y353334D01*
X184047D01*
Y355909D01*
X185097D01*
Y360634D01*
D02*
G37*
G36*
X210500Y374813D02*
X194500D01*
X193998Y374713D01*
X193572Y374428D01*
X185676Y366532D01*
X185176Y366740D01*
Y367223D01*
X180426D01*
Y362247D01*
X185176D01*
Y363422D01*
X185735D01*
X186237Y363522D01*
X186663Y363807D01*
X195044Y372187D01*
X209956D01*
X216475Y365669D01*
Y344306D01*
X216013Y344115D01*
X215556Y344569D01*
X215428Y344654D01*
X215297Y344742D01*
X215296Y344742D01*
X215295Y344742D01*
X215143Y344772D01*
X214990Y344803D01*
X208996D01*
X207218Y348359D01*
X207139Y348461D01*
X207068Y348568D01*
X207044Y348584D01*
X207026Y348606D01*
X206914Y348670D01*
X206807Y348742D01*
X206779Y348747D01*
X206754Y348762D01*
X206626Y348778D01*
X206500Y348803D01*
X199500D01*
X199193Y348742D01*
X199079Y348666D01*
X198850D01*
Y348445D01*
X198758Y348307D01*
X198697Y348000D01*
Y333000D01*
X198758Y332693D01*
X198932Y332432D01*
X202600Y328765D01*
X202409Y328303D01*
X191303D01*
Y328319D01*
X186623D01*
X186293Y328648D01*
X186263Y328801D01*
X186234Y328952D01*
X186029Y329453D01*
X185943Y329583D01*
X185858Y329712D01*
X185479Y330099D01*
X185352Y330185D01*
X185223Y330274D01*
X184726Y330488D01*
X184574Y330520D01*
X184423Y330553D01*
X184152Y330558D01*
X184138Y330555D01*
X184123Y330558D01*
X183852Y330553D01*
X183702Y330520D01*
X183549Y330488D01*
X183052Y330274D01*
X182924Y330186D01*
X182796Y330099D01*
X182417Y329712D01*
X182332Y329583D01*
X182246Y329453D01*
X182041Y328952D01*
X182012Y328799D01*
X181982Y328648D01*
X181982Y328106D01*
X182012Y327953D01*
X182041Y327803D01*
X182246Y327301D01*
X182332Y327172D01*
X182417Y327043D01*
X182796Y326656D01*
X182923Y326569D01*
X183052Y326481D01*
X183549Y326267D01*
X183702Y326235D01*
X183852Y326202D01*
X184123Y326197D01*
X184130Y326198D01*
X184137Y326197D01*
X184145Y326198D01*
X184152Y326197D01*
X184423Y326202D01*
X184573Y326235D01*
X184725Y326267D01*
X184882Y326334D01*
X185382Y326005D01*
Y325267D01*
X185398Y325190D01*
Y323273D01*
X184299D01*
X184289Y323289D01*
X183697Y323684D01*
X183000Y323822D01*
X182303Y323684D01*
X181711Y323289D01*
X181316Y322697D01*
X181178Y322000D01*
X181316Y321303D01*
X181711Y320711D01*
X182303Y320316D01*
X183000Y320178D01*
X183697Y320316D01*
X184193Y320648D01*
X185398D01*
Y319633D01*
X185258Y319523D01*
X184898Y319333D01*
X184293Y319453D01*
X183596Y319314D01*
X183004Y318919D01*
X182609Y318328D01*
X182471Y317630D01*
X182609Y316933D01*
X182980Y316378D01*
Y314663D01*
X183080Y314160D01*
X183365Y313734D01*
X183950Y313149D01*
X184376Y312864D01*
X184879Y312764D01*
X185398D01*
Y308809D01*
X185382Y308732D01*
Y307993D01*
X184882Y307664D01*
X184726Y307732D01*
X184574Y307764D01*
X184423Y307797D01*
X184152Y307802D01*
X184138Y307799D01*
X184123Y307802D01*
X183852Y307797D01*
X183702Y307764D01*
X183549Y307732D01*
X183052Y307518D01*
X182924Y307430D01*
X182796Y307343D01*
X182417Y306956D01*
X182332Y306826D01*
X182246Y306698D01*
X182041Y306196D01*
X182012Y306043D01*
X181982Y305892D01*
X181982Y305350D01*
X182012Y305197D01*
X182041Y305047D01*
X182246Y304545D01*
X182332Y304416D01*
X182417Y304287D01*
X182796Y303900D01*
X182923Y303813D01*
X183052Y303725D01*
X183549Y303511D01*
X183702Y303479D01*
X183852Y303446D01*
X184123Y303441D01*
X184130Y303442D01*
X184137Y303441D01*
X184145Y303442D01*
X184152Y303441D01*
X184423Y303446D01*
X184573Y303479D01*
X184725Y303511D01*
X185223Y303725D01*
X185351Y303813D01*
X185479Y303900D01*
X185858Y304286D01*
X185943Y304416D01*
X186029Y304545D01*
X186234Y305047D01*
X186263Y305199D01*
X186293Y305350D01*
Y305567D01*
X196869Y305567D01*
X196890Y305571D01*
X196911Y305568D01*
X197043Y305601D01*
X197177Y305628D01*
X197194Y305639D01*
X197214Y305644D01*
X197324Y305726D01*
X197437Y305802D01*
X197449Y305819D01*
X197466Y305832D01*
X199596Y308194D01*
X199666Y308311D01*
X199742Y308424D01*
X199746Y308445D01*
X199757Y308463D01*
X199776Y308598D01*
X199803Y308732D01*
Y320697D01*
X213000Y320697D01*
X213307Y320758D01*
X213568Y320932D01*
X216003Y323368D01*
X216022Y323364D01*
X216187Y322822D01*
X215432Y322068D01*
X215258Y321807D01*
X215197Y321500D01*
X215197Y311245D01*
X215144Y310978D01*
Y303550D01*
X215341Y302560D01*
X215902Y301721D01*
X217952Y299671D01*
X218792Y299110D01*
X219782Y298913D01*
X277950D01*
X278940Y299110D01*
X279779Y299671D01*
X281829Y301721D01*
X282390Y302560D01*
X282587Y303550D01*
Y337500D01*
Y340500D01*
Y357597D01*
X282966Y358090D01*
X283347Y359011D01*
X283477Y360000D01*
Y362000D01*
X283347Y362989D01*
X282966Y363910D01*
X282359Y364701D01*
X281567Y365308D01*
X280646Y365690D01*
X279657Y365820D01*
X278669Y365690D01*
X277747Y365308D01*
X276956Y364701D01*
X276660Y364316D01*
X259787D01*
Y364771D01*
X253213D01*
Y364300D01*
X241461D01*
Y364527D01*
X231539D01*
Y357441D01*
X241461D01*
Y357668D01*
X253213D01*
Y357197D01*
X259787D01*
Y357684D01*
X276660D01*
X276956Y357299D01*
X277413Y356948D01*
Y343754D01*
X276913Y343603D01*
X276789Y343789D01*
X276197Y344184D01*
X275500Y344322D01*
X274803Y344184D01*
X274211Y343789D01*
X273816Y343197D01*
X273686Y342542D01*
X273169Y342025D01*
X257158D01*
Y350500D01*
X257097Y350807D01*
X256923Y351068D01*
X256662Y351242D01*
X256355Y351303D01*
X248065D01*
X247919Y351274D01*
X247773Y351248D01*
X247766Y351243D01*
X247757Y351242D01*
X247634Y351159D01*
X247509Y351080D01*
X244940Y348617D01*
X243304Y348617D01*
X243273Y348623D01*
X233739Y348623D01*
X232461Y349901D01*
X232461Y349901D01*
X232201Y350075D01*
X231894Y350136D01*
X220680Y350136D01*
X220589Y350118D01*
X219941D01*
Y349645D01*
X219938Y349641D01*
X219877Y349333D01*
Y346185D01*
X219938Y345878D01*
X219941Y345873D01*
Y345394D01*
X220622D01*
X220680Y345382D01*
X230982Y345382D01*
X231185Y345180D01*
X231185Y343325D01*
X230723Y343133D01*
X230684Y343172D01*
X230258Y343457D01*
X229756Y343557D01*
X225059D01*
Y344606D01*
X219941D01*
Y341069D01*
X219479Y340878D01*
X219100Y341256D01*
Y366213D01*
X219000Y366715D01*
X218716Y367141D01*
X211428Y374428D01*
X211002Y374713D01*
X210500Y374813D01*
D02*
G37*
G36*
X185432Y346423D02*
X180682D01*
Y341447D01*
X185432D01*
Y342622D01*
X187282D01*
X187420Y342416D01*
X188011Y342021D01*
X188708Y341882D01*
X189406Y342021D01*
X189997Y342416D01*
X190392Y343007D01*
X190531Y343705D01*
X190392Y344402D01*
X189997Y344993D01*
X189406Y345388D01*
X188708Y345527D01*
X188011Y345388D01*
X187800Y345248D01*
X185432D01*
Y346423D01*
D02*
G37*
G36*
X178800Y360607D02*
X174076D01*
Y355882D01*
X175126D01*
Y353307D01*
X174212D01*
Y348583D01*
X175261D01*
Y346423D01*
X174750D01*
Y341447D01*
X179500D01*
Y346423D01*
X177887D01*
Y348583D01*
X178936D01*
Y353307D01*
X177751D01*
Y355882D01*
X178800D01*
Y360607D01*
D02*
G37*
G36*
X295341Y350488D02*
X290591D01*
Y345512D01*
X295341D01*
Y346687D01*
X298456D01*
X304187Y340956D01*
Y339822D01*
X303725Y339631D01*
X300428Y342928D01*
X300002Y343213D01*
X299500Y343313D01*
X295341D01*
Y344488D01*
X290591D01*
Y339512D01*
X295341D01*
Y340687D01*
X298956D01*
X302187Y337456D01*
Y321544D01*
X301956Y321313D01*
X301240D01*
Y322213D01*
X301240Y322287D01*
Y322713D01*
X301240Y322787D01*
Y327287D01*
X299813D01*
Y334500D01*
X299713Y335002D01*
X299428Y335428D01*
X297928Y336928D01*
X297502Y337213D01*
X297000Y337313D01*
X295341D01*
Y338488D01*
X290591D01*
Y333512D01*
X295341D01*
Y334687D01*
X296456D01*
X297187Y333956D01*
Y327287D01*
X293760D01*
Y322787D01*
X293760Y322713D01*
Y322287D01*
X293760Y322213D01*
Y317713D01*
X293760D01*
Y317287D01*
X293760D01*
Y312787D01*
X293760Y312713D01*
Y312287D01*
X293760Y312213D01*
Y307713D01*
X301240D01*
Y312213D01*
X301240Y312287D01*
Y312713D01*
X301240Y312787D01*
Y313687D01*
X303500D01*
X304002Y313787D01*
X304428Y314072D01*
X306428Y316072D01*
X306713Y316498D01*
X306813Y317000D01*
Y341500D01*
X306713Y342002D01*
X306428Y342428D01*
X299928Y348928D01*
X299502Y349213D01*
X299000Y349313D01*
X295341D01*
Y350488D01*
D02*
G37*
%LPD*%
G36*
X256355Y342000D02*
X242520D01*
Y342000D01*
X239845Y342000D01*
X238996Y340996D01*
X238996Y334267D01*
X231988Y334267D01*
X231988Y345512D01*
X231315Y346185D01*
X220680Y346185D01*
Y349333D01*
X231894Y349333D01*
X233407Y347820D01*
X243273Y347820D01*
Y347814D01*
X245263Y347814D01*
X248065Y350500D01*
X256355D01*
Y342000D01*
D02*
G37*
G36*
X277413Y341246D02*
Y337500D01*
Y304622D01*
X276878Y304087D01*
X220853D01*
X220318Y304622D01*
Y310978D01*
X220303Y311057D01*
X220303Y314929D01*
X220470Y315044D01*
X220803Y315150D01*
X221303Y314816D01*
X222000Y314678D01*
X222697Y314816D01*
X223289Y315211D01*
X223684Y315803D01*
X223822Y316500D01*
X223684Y317197D01*
X223618Y317295D01*
X223898Y317777D01*
X227271D01*
Y313796D01*
X229266D01*
Y311488D01*
X228159D01*
Y306512D01*
X232909D01*
Y311222D01*
X233075Y311567D01*
X233327Y311687D01*
X243421D01*
X243687Y311420D01*
Y307500D01*
X243787Y306998D01*
X244072Y306572D01*
X245072Y305572D01*
X245498Y305287D01*
X246000Y305187D01*
X266914D01*
X267417Y305287D01*
X267842Y305572D01*
X268428Y306158D01*
X268713Y306583D01*
X268813Y307086D01*
Y307713D01*
X271240D01*
Y308465D01*
X271256Y308543D01*
Y326500D01*
X271240Y326578D01*
Y327287D01*
X270530D01*
X270453Y327303D01*
X264500D01*
X264303Y327763D01*
Y335687D01*
X266456D01*
X266686Y335458D01*
X266816Y334803D01*
X267211Y334211D01*
X267803Y333816D01*
X268500Y333678D01*
X269197Y333816D01*
X269789Y334211D01*
X270184Y334803D01*
X270322Y335500D01*
X270184Y336197D01*
X269789Y336789D01*
X269510Y336975D01*
X269662Y337475D01*
X271659D01*
Y335012D01*
X276409D01*
Y339988D01*
X275821D01*
X275548Y340488D01*
X275694Y340716D01*
X276197Y340816D01*
X276789Y341211D01*
X276913Y341397D01*
X277413Y341246D01*
D02*
G37*
G36*
X208500Y344000D02*
X214990D01*
X216500Y342497D01*
Y333500D01*
X218500Y331500D01*
X224061D01*
X224187Y331374D01*
X227232D01*
Y328500D01*
X227140Y328408D01*
X204092D01*
X199500Y333000D01*
Y348000D01*
X206500D01*
X208500Y344000D01*
D02*
G37*
G36*
X263500Y323000D02*
X253111D01*
X251863Y328396D01*
X243767Y328396D01*
Y331467D01*
X251936D01*
X253111Y336000D01*
X263500D01*
Y323000D01*
D02*
G37*
G36*
X227235Y324500D02*
X216000Y324500D01*
X213000Y321500D01*
X199000Y321500D01*
Y308732D01*
X196869Y306369D01*
X186185Y306369D01*
Y308732D01*
X194393D01*
X195000Y309427D01*
X195000Y321500D01*
X191233Y325267D01*
X190516Y325267D01*
X186185Y325267D01*
X186185Y327500D01*
X227223D01*
X227235Y324500D01*
D02*
G37*
G36*
X219072Y337572D02*
X219498Y337287D01*
X220000Y337187D01*
X227238D01*
Y335893D01*
X227263Y335766D01*
Y333480D01*
X231910D01*
X231988Y333464D01*
X238996Y333464D01*
X239074Y333480D01*
X242980D01*
Y331545D01*
X242964Y331467D01*
Y328396D01*
X242980Y328318D01*
Y325640D01*
Y321703D01*
Y318520D01*
X241051D01*
Y314313D01*
X239792D01*
Y318520D01*
X228020D01*
Y321821D01*
X228151Y322018D01*
X228212Y322325D01*
X228212Y323792D01*
X228151Y324099D01*
X228020Y324295D01*
Y324413D01*
X228038Y324500D01*
X228037Y324502D01*
X228038Y324503D01*
X228026Y327503D01*
X228020Y327530D01*
Y328425D01*
X228035Y328500D01*
Y331374D01*
X228020Y331450D01*
Y332266D01*
X224249D01*
X224061Y332303D01*
X218832D01*
X217303Y333833D01*
Y338688D01*
X217765Y338879D01*
X219072Y337572D01*
D02*
G37*
G36*
X263697Y322035D02*
Y308543D01*
X263743Y308313D01*
X263517Y307813D01*
X246544D01*
X246313Y308044D01*
Y311964D01*
X246213Y312467D01*
X245928Y312892D01*
X244892Y313928D01*
X244466Y314213D01*
X243964Y314313D01*
X243729D01*
Y317771D01*
X247704D01*
Y319760D01*
X249687D01*
Y318981D01*
X249306Y318410D01*
X249167Y317713D01*
X249306Y317015D01*
X249701Y316424D01*
X250292Y316029D01*
X250989Y315890D01*
X251687Y316029D01*
X252278Y316424D01*
X252620Y316936D01*
X252894Y316980D01*
X253167Y316936D01*
X253509Y316424D01*
X254101Y316029D01*
X254798Y315890D01*
X255496Y316029D01*
X256087Y316424D01*
X256482Y317015D01*
X256621Y317713D01*
X256482Y318410D01*
X256111Y318965D01*
Y321202D01*
X256011Y321704D01*
X256283Y322197D01*
X259154D01*
X259306Y321697D01*
X259004Y321496D01*
X258609Y320904D01*
X258471Y320207D01*
X258609Y319510D01*
X258687Y319393D01*
Y318841D01*
X257512D01*
Y314091D01*
X262488D01*
Y318841D01*
X262131D01*
X261864Y319341D01*
X261977Y319510D01*
X262115Y320207D01*
X261977Y320904D01*
X261582Y321496D01*
X261280Y321697D01*
X261432Y322197D01*
X263500D01*
X263697Y322035D01*
D02*
G37*
G36*
X227410Y322325D02*
X220825Y322325D01*
X219500Y321000D01*
X219500Y309072D01*
X216000Y309072D01*
X216000Y321500D01*
X218292Y323792D01*
X227410D01*
X227410Y322325D01*
D02*
G37*
D11*
X176869Y364735D02*
Y370915D01*
X176323Y371461D02*
X176869Y370915D01*
X183057Y343935D02*
X188478D01*
X182870Y350972D02*
X187972D01*
X176323Y365282D02*
X176869Y364735D01*
X210500Y373500D02*
X217787Y366213D01*
Y340713D02*
Y366213D01*
X194500Y373500D02*
X210500D01*
X185735Y364735D02*
X194500Y373500D01*
X182801Y364735D02*
X185735D01*
X267000Y337000D02*
X268500Y335500D01*
X251776Y337000D02*
X267000D01*
X245393Y332935D02*
X247712D01*
X251776Y337000D01*
X245342Y332884D02*
X245393Y332935D01*
X242433Y336917D02*
X244304Y338787D01*
X273713Y340713D02*
X275500Y342500D01*
X242209Y340713D02*
X273713D01*
X242382Y335842D02*
X242433Y335893D01*
Y336917D01*
X244304Y338787D02*
X272860D01*
X274034Y337613D01*
X240413Y338917D02*
X242209Y340713D01*
X274034Y337500D02*
Y337613D01*
X176574Y344486D02*
Y350945D01*
Y344486D02*
X177125Y343935D01*
X176438Y351081D02*
Y358244D01*
Y351081D02*
X176574Y350945D01*
X182734Y351108D02*
Y358272D01*
Y351108D02*
X182870Y350972D01*
X266914Y306500D02*
X267500Y307086D01*
X299000Y348000D02*
X305500Y341500D01*
Y317000D02*
Y341500D01*
X303500Y315000D02*
X305500Y317000D01*
X299500Y342000D02*
X303500Y338000D01*
Y321000D02*
Y338000D01*
X302500Y320000D02*
X303500Y321000D01*
X297000Y336000D02*
X298500Y334500D01*
X292966Y336000D02*
X297000D01*
X298500Y325000D02*
Y334500D01*
X292966Y348000D02*
X299000D01*
X297500Y315000D02*
X303500D01*
X292966Y342000D02*
X299500D01*
X297500Y320000D02*
X302500D01*
X260293Y320207D02*
X260586Y320500D01*
X260000Y319914D02*
X260293Y320207D01*
X260000Y316466D02*
Y319914D01*
X245000Y307500D02*
Y311964D01*
X233133Y313000D02*
X243964D01*
X245000Y311964D01*
Y307500D02*
X246000Y306500D01*
X266914D01*
X232547Y313586D02*
Y316158D01*
Y313586D02*
X233133Y313000D01*
X267500Y307086D02*
Y310000D01*
X240413Y335842D02*
Y338917D01*
X230579Y309045D02*
Y316158D01*
X230534Y309000D02*
X230579Y309045D01*
X188311Y321960D02*
X188350Y321920D01*
X183040Y321960D02*
X188311D01*
X183000Y322000D02*
X183040Y321960D01*
X188350Y321920D02*
X188442Y322011D01*
X191914Y310019D02*
X192809Y310913D01*
Y311309D01*
X193000Y311500D01*
X192260Y319607D02*
X192546D01*
X192443Y320013D02*
X192582Y319874D01*
X192546Y319607D02*
X192741Y319412D01*
Y316692D02*
Y319412D01*
X188411Y320013D02*
X192443D01*
X188350Y319953D02*
X188411Y320013D01*
X188441Y316106D02*
X192155D01*
X192741Y316692D01*
X253000Y323000D02*
X254798Y321202D01*
X245342Y323042D02*
X245384Y323000D01*
X253000D01*
X254798Y317713D02*
Y321202D01*
X250989Y317713D02*
X251000Y317723D01*
X250414Y321073D02*
X251000Y320487D01*
X245342Y321073D02*
X250414D01*
X251000Y317723D02*
Y320487D01*
X184293Y314663D02*
Y317630D01*
X184879Y314077D02*
X188149D01*
X184293Y314663D02*
X184879Y314077D01*
X184293Y317630D02*
X184586Y317923D01*
X217787Y340713D02*
X220000Y338500D01*
X227965D01*
X228551Y335893D02*
X228602Y335842D01*
X227965Y338500D02*
X228551Y337914D01*
Y335893D02*
Y337914D01*
X221550Y320475D02*
X222160Y321085D01*
X225658D01*
X222000Y316500D02*
X222028Y316528D01*
Y318000D01*
X223144Y319116D02*
X225658D01*
X222028Y318000D02*
X223144Y319116D01*
X184586Y317923D02*
X188059D01*
X188149Y318014D01*
X188350Y316016D02*
X188441Y316106D01*
X188350Y310109D02*
X188441Y310019D01*
X191914D01*
X222500Y342244D02*
X229756D01*
X230571Y341429D01*
Y335842D02*
Y341429D01*
X214000Y332000D02*
X214582D01*
X236835Y346681D02*
X238500Y345016D01*
D17*
X202000Y340988D02*
D03*
Y362012D02*
D03*
D18*
X207000Y324500D02*
D03*
Y315500D02*
D03*
X256500Y369984D02*
D03*
Y360984D02*
D03*
D19*
X222500Y342244D02*
D03*
Y347756D02*
D03*
D20*
X236500Y345016D02*
D03*
Y360984D02*
D03*
D21*
X182619Y371488D02*
D03*
X176323Y371461D02*
D03*
X176439Y358244D02*
D03*
X182735Y358271D02*
D03*
X182869Y350972D02*
D03*
X176573Y350945D02*
D03*
D22*
X268768Y347000D02*
D03*
X252232D02*
D03*
D23*
X297500Y315000D02*
D03*
X267500D02*
D03*
Y320000D02*
D03*
X297500D02*
D03*
Y325000D02*
D03*
X267500D02*
D03*
Y310000D02*
D03*
X297500D02*
D03*
D24*
X223256Y311000D02*
D03*
X217744D02*
D03*
D45*
X287034Y342000D02*
D03*
X292966D02*
D03*
X236466Y309000D02*
D03*
X230534D02*
D03*
X287034Y336000D02*
D03*
X292966D02*
D03*
X287034Y348000D02*
D03*
X292966D02*
D03*
X177125Y343935D02*
D03*
X183057D02*
D03*
X176869Y364735D02*
D03*
X182801D02*
D03*
X274034Y337500D02*
D03*
X279966D02*
D03*
D46*
X260000Y316466D02*
D03*
Y310534D02*
D03*
D47*
X188350Y329598D02*
D03*
Y326448D02*
D03*
Y307551D02*
D03*
Y304401D02*
D03*
D48*
Y323889D02*
D03*
Y321920D02*
D03*
Y319953D02*
D03*
Y317985D02*
D03*
Y316016D02*
D03*
Y314048D02*
D03*
Y312078D02*
D03*
Y310109D02*
D03*
D49*
X245342Y319110D02*
D03*
Y321073D02*
D03*
Y323042D02*
D03*
Y325010D02*
D03*
Y326979D02*
D03*
Y328947D02*
D03*
Y330916D02*
D03*
Y332884D02*
D03*
X225658Y332896D02*
D03*
Y330927D02*
D03*
Y328959D02*
D03*
Y326990D02*
D03*
Y325022D02*
D03*
Y323053D02*
D03*
Y321085D02*
D03*
Y319116D02*
D03*
D50*
X242382Y335842D02*
D03*
X240413D02*
D03*
X238445D02*
D03*
X236476D02*
D03*
X234508D02*
D03*
X232539D02*
D03*
X230571D02*
D03*
X228602D02*
D03*
X228610Y316158D02*
D03*
X230579D02*
D03*
X232547D02*
D03*
X234516D02*
D03*
X236484D02*
D03*
X238453D02*
D03*
X240421D02*
D03*
X242390D02*
D03*
D51*
X235500Y326000D02*
D03*
D52*
X280000Y303550D02*
Y337500D01*
X217731Y303550D02*
Y310978D01*
X219782Y301500D02*
X277950D01*
X280000Y303550D01*
X217731D02*
X219782Y301500D01*
X280000Y337500D02*
Y340500D01*
Y361000D01*
D53*
X256500D02*
X280000D01*
X237000Y360984D02*
X256500D01*
Y361000D01*
D54*
X267476Y317522D02*
D03*
D55*
X235500Y326000D02*
D03*
D56*
X186186Y334028D02*
D03*
Y299973D02*
D03*
D57*
X169650Y334028D02*
D03*
Y299973D02*
D03*
D58*
X289500Y361000D02*
D03*
D59*
X279657D02*
D03*
D60*
X203500Y301000D02*
D03*
X167000Y346500D02*
D03*
Y357500D02*
D03*
Y369000D02*
D03*
X171500Y308500D02*
D03*
Y317500D02*
D03*
Y326000D02*
D03*
X301500Y357500D02*
D03*
Y367000D02*
D03*
X236500Y371500D02*
D03*
X225000D02*
D03*
X188708Y343705D02*
D03*
X188500Y351000D02*
D03*
X268500Y335500D02*
D03*
X260293Y320207D02*
D03*
X275500Y342500D02*
D03*
X193000Y311500D02*
D03*
X192582Y319874D02*
D03*
X254798Y317713D02*
D03*
X250989D02*
D03*
X222000Y316500D02*
D03*
X221550Y320475D02*
D03*
X184293Y317630D02*
D03*
X183000Y322000D02*
D03*
D61*
X223500Y306000D02*
D03*
X254000Y309500D02*
D03*
X241500Y308000D02*
D03*
X235500Y322000D02*
D03*
X231500D02*
D03*
X235500Y326000D02*
D03*
X231500D02*
D03*
X235500Y330000D02*
D03*
X231500D02*
D03*
X209500Y332000D02*
D03*
Y336500D02*
D03*
X214000Y332000D02*
D03*
X257000Y325000D02*
D03*
X261500Y334000D02*
D03*
Y325000D02*
D03*
X257000Y334000D02*
D03*
X261500Y329500D02*
D03*
X257000D02*
D03*
X214000Y336500D02*
D03*
X209500Y341000D02*
D03*
X214000D02*
D03*
M02*
