M48
;Layer_Color=9474304
;FILE_FORMAT=2:5
INCH,LZ
;TYPE=PLATED
T1F00S00C0.01200
T3F00S00C0.03150
%
T01
X01715Y03085
X0193Y03115
X02035Y0301
X02235Y0306
X02415Y0308
X0254Y03095
X0254798Y0317713
X0250989
X0260293Y0320207
X02615Y0325
X0257
Y03295
Y0334
X02615
Y03295
X02685Y03355
X02755Y03425
X03015Y03575
Y0367
X02365Y03715
X0225
X0214Y0341
Y03365
X02095
Y0332
X0214
X02095Y0341
X0188708Y0343705
X01885Y0351
X0167Y03465
Y03575
Y0369
X01715Y0326
Y03175
X0184293Y031763
X0183Y0322
X0192582Y0319874
X022155Y0320475
X0222Y03165
X02315Y0322
X02355
Y0326
X02315
Y033
X02355
T03
X0279657Y0361
X02895
M30
