G04*
G04 #@! TF.GenerationSoftware,Altium Limited,Altium Designer,20.2.6 (244)*
G04*
G04 Layer_Color=32896*
%FSLAX25Y25*%
%MOIN*%
G70*
G04*
G04 #@! TF.SameCoordinates,3D68E59D-D58F-4EE4-A00C-4EB088E58223*
G04*
G04*
G04 #@! TF.FilePolarity,Positive*
G04*
G01*
G75*
%ADD10C,0.01200*%
%ADD15C,0.00300*%
D10*
X233100Y332000D02*
G03*
X233100Y341000I-4500J4500D01*
G01*
X217900D02*
G03*
X217900Y332000I4500J-4500D01*
G01*
X253600D02*
G03*
X253600Y341000I-4500J4500D01*
G01*
X238400D02*
G03*
X238400Y332000I4500J-4500D01*
G01*
X253600Y320500D02*
G03*
X253600Y329500I-4500J4500D01*
G01*
X238400D02*
G03*
X238400Y320500I4500J-4500D01*
G01*
X227500Y341000D02*
X233100D01*
X217900D02*
X223500D01*
X227500Y332000D02*
X233100D01*
X217900D02*
X223500D01*
X248000Y341000D02*
X253600D01*
X238400D02*
X244000D01*
X248000Y332000D02*
X253600D01*
X238400D02*
X244000D01*
X248000Y329500D02*
X253600D01*
X238400D02*
X244000D01*
X248000Y320500D02*
X253600D01*
X238400D02*
X244000D01*
D15*
X221833Y329167D02*
X222166Y329500D01*
X222833D01*
X223166Y329167D01*
Y327834D01*
X222833Y327500D01*
X222166D01*
X221833Y327834D01*
X221167Y329500D02*
X219834D01*
Y329167D01*
X221167Y327834D01*
Y327500D01*
X258333Y340166D02*
X258666Y340500D01*
X259333D01*
X259666Y340166D01*
Y338834D01*
X259333Y338500D01*
X258666D01*
X258333Y338834D01*
X256334Y338500D02*
X257667D01*
X256334Y339833D01*
Y340166D01*
X256667Y340500D01*
X257333D01*
X257667Y340166D01*
X257000Y321166D02*
X257333Y321500D01*
X258000D01*
X258333Y321166D01*
Y319834D01*
X258000Y319500D01*
X257333D01*
X257000Y319834D01*
X256334Y319500D02*
X255667D01*
X256000D01*
Y321500D01*
X256334Y321166D01*
M02*
