G04*
G04 #@! TF.GenerationSoftware,Altium Limited,Altium Designer,20.2.6 (244)*
G04*
G04 Layer_Color=8388736*
%FSLAX25Y25*%
%MOIN*%
G70*
G04*
G04 #@! TF.SameCoordinates,3D68E59D-D58F-4EE4-A00C-4EB088E58223*
G04*
G04*
G04 #@! TF.FilePolarity,Positive*
G04*
G01*
G75*
%ADD65C,0.00984*%
%ADD66C,0.01181*%
G36*
X183684Y371232D02*
X181558D01*
Y371744D01*
X183684D01*
Y371232D01*
D02*
G37*
G36*
X176579Y371717D02*
X177389D01*
Y371205D01*
X176579D01*
Y370400D01*
X176067D01*
Y371205D01*
X175262D01*
Y371717D01*
X176067D01*
Y372526D01*
X176579D01*
Y371717D01*
D02*
G37*
G36*
X202390Y360594D02*
X201610D01*
Y363712D01*
X202390D01*
Y360594D01*
D02*
G37*
G36*
X183799Y358016D02*
X181673D01*
Y358527D01*
X183799D01*
Y358016D01*
D02*
G37*
G36*
X176695Y358500D02*
X177504D01*
Y357989D01*
X176695D01*
Y357183D01*
X176183D01*
Y357989D01*
X175378D01*
Y358500D01*
X176183D01*
Y359309D01*
X176695D01*
Y358500D01*
D02*
G37*
G36*
X177635Y350689D02*
X175509D01*
Y351201D01*
X177635D01*
Y350689D01*
D02*
G37*
G36*
X183125Y351228D02*
X183930D01*
Y350716D01*
X183125D01*
Y349907D01*
X182614D01*
Y350716D01*
X181804D01*
Y351228D01*
X182614D01*
Y352033D01*
X183125D01*
Y351228D01*
D02*
G37*
G36*
X270151Y346609D02*
X267021D01*
Y347391D01*
X270151D01*
Y346609D01*
D02*
G37*
G36*
X252806Y347391D02*
X253979D01*
Y346609D01*
X252806D01*
Y344392D01*
X252023D01*
Y346609D01*
X250849D01*
Y347391D01*
X252023D01*
Y349608D01*
X252806D01*
Y347391D01*
D02*
G37*
G36*
X202390Y341236D02*
X204599D01*
Y340457D01*
X202390D01*
Y339287D01*
X201610D01*
Y340457D01*
X199402D01*
Y341236D01*
X201610D01*
Y342405D01*
X202390D01*
Y341236D01*
D02*
G37*
G36*
X275807Y325020D02*
X275532Y324587D01*
X270374D01*
X270413Y325256D01*
X274665Y325217D01*
X274114Y326201D01*
X274429Y326358D01*
X274705Y326437D01*
X275807Y325020D01*
D02*
G37*
G36*
X273879Y319036D02*
X274509Y318918D01*
X274942Y319036D01*
X275257Y319666D01*
X275217Y320453D01*
X274863Y320926D01*
X274312Y321320D01*
X274272Y321634D01*
X274784Y321871D01*
X275532Y321477D01*
X275887Y320532D01*
Y319430D01*
X275493Y318682D01*
X274902Y318367D01*
X274076Y318445D01*
X273013Y319036D01*
X271123Y320926D01*
X271202Y318170D01*
X270808Y318052D01*
X270572Y318249D01*
X270493Y321280D01*
Y321871D01*
X270887Y321949D01*
X273879Y319036D01*
D02*
G37*
D65*
X184629Y328378D02*
G03*
X184629Y328378I-492J0D01*
G01*
Y305622D02*
G03*
X184629Y305622I-492J0D01*
G01*
D66*
X247430Y319110D02*
G03*
X247430Y319110I-591J0D01*
G01*
M02*
