G04*
G04 #@! TF.GenerationSoftware,Altium Limited,Altium Designer,20.2.6 (244)*
G04*
G04 Layer_Color=128*
%FSLAX25Y25*%
%MOIN*%
G70*
G04*
G04 #@! TF.SameCoordinates,3D68E59D-D58F-4EE4-A00C-4EB088E58223*
G04*
G04*
G04 #@! TF.FilePolarity,Positive*
G04*
G01*
G75*
%ADD67C,0.00200*%
D67*
X185005Y334028D02*
X187367D01*
X186186Y332847D02*
Y335209D01*
X185005Y299973D02*
X187367D01*
X186186Y298792D02*
Y301154D01*
X168468Y334028D02*
X170831D01*
X169650Y332846D02*
Y335209D01*
X168468Y299973D02*
X170831D01*
X169650Y298791D02*
Y301154D01*
X287925Y361000D02*
X291075D01*
X289500Y359425D02*
Y362575D01*
X278083Y361000D02*
X281232D01*
X279657Y359425D02*
Y362575D01*
X202900Y301000D02*
X204100D01*
X203500Y300400D02*
Y301600D01*
X166400Y346500D02*
X167600D01*
X167000Y345900D02*
Y347100D01*
X166400Y357500D02*
X167600D01*
X167000Y356900D02*
Y358100D01*
X166400Y369000D02*
X167600D01*
X167000Y368400D02*
Y369600D01*
X170900Y308500D02*
X172100D01*
X171500Y307900D02*
Y309100D01*
X170900Y317500D02*
X172100D01*
X171500Y316900D02*
Y318100D01*
X170900Y326000D02*
X172100D01*
X171500Y325400D02*
Y326600D01*
X300900Y357500D02*
X302100D01*
X301500Y356900D02*
Y358100D01*
X300900Y367000D02*
X302100D01*
X301500Y366400D02*
Y367600D01*
X235900Y371500D02*
X237100D01*
X236500Y370900D02*
Y372100D01*
X224400Y371500D02*
X225600D01*
X225000Y370900D02*
Y372100D01*
X222900Y306000D02*
X224100D01*
X223500Y305400D02*
Y306600D01*
X188108Y343705D02*
X189308D01*
X188708Y343105D02*
Y344304D01*
X187900Y351000D02*
X189100D01*
X188500Y350400D02*
Y351600D01*
X267900Y335500D02*
X269100D01*
X268500Y334900D02*
Y336100D01*
X259693Y320207D02*
X260893D01*
X260293Y319607D02*
Y320807D01*
X253400Y309500D02*
X254600D01*
X254000Y308900D02*
Y310100D01*
X240900Y308000D02*
X242100D01*
X241500Y307400D02*
Y308600D01*
X274900Y342500D02*
X276100D01*
X275500Y341900D02*
Y343100D01*
X192400Y311500D02*
X193600D01*
X193000Y310900D02*
Y312100D01*
X191982Y319874D02*
X193182D01*
X192582Y319274D02*
Y320474D01*
X254198Y317713D02*
X255398D01*
X254798Y317113D02*
Y318313D01*
X250389Y317713D02*
X251589D01*
X250989Y317113D02*
Y318313D01*
X234900Y322000D02*
X236100D01*
X235500Y321400D02*
Y322600D01*
X230900Y322000D02*
X232100D01*
X231500Y321400D02*
Y322600D01*
X234900Y326000D02*
X236100D01*
X235500Y325400D02*
Y326600D01*
X230900Y326000D02*
X232100D01*
X231500Y325400D02*
Y326600D01*
X234900Y330000D02*
X236100D01*
X235500Y329400D02*
Y330600D01*
X230900Y330000D02*
X232100D01*
X231500Y329400D02*
Y330600D01*
X221400Y316500D02*
X222600D01*
X222000Y315900D02*
Y317100D01*
X220950Y320475D02*
X222150D01*
X221550Y319875D02*
Y321075D01*
X183693Y317630D02*
X184893D01*
X184293Y317030D02*
Y318230D01*
X182400Y322000D02*
X183600D01*
X183000Y321400D02*
Y322600D01*
X208900Y332000D02*
X210100D01*
X209500Y331400D02*
Y332600D01*
X208900Y336500D02*
X210100D01*
X209500Y335900D02*
Y337100D01*
X213400Y332000D02*
X214600D01*
X214000Y331400D02*
Y332600D01*
X256400Y325000D02*
X257600D01*
X257000Y324400D02*
Y325600D01*
X260900Y334000D02*
X262100D01*
X261500Y333400D02*
Y334600D01*
X260900Y325000D02*
X262100D01*
X261500Y324400D02*
Y325600D01*
X256400Y334000D02*
X257600D01*
X257000Y333400D02*
Y334600D01*
X260900Y329500D02*
X262100D01*
X261500Y328900D02*
Y330100D01*
X256400Y329500D02*
X257600D01*
X257000Y328900D02*
Y330100D01*
X213400Y336500D02*
X214600D01*
X214000Y335900D02*
Y337100D01*
X208900Y341000D02*
X210100D01*
X209500Y340400D02*
Y341600D01*
X213400Y341000D02*
X214600D01*
X214000Y340400D02*
Y341600D01*
M02*
