G04*
G04 #@! TF.GenerationSoftware,Altium Limited,Altium Designer,20.2.6 (244)*
G04*
G04 Layer_Physical_Order=2*
G04 Layer_Color=16711680*
%FSLAX25Y25*%
%MOIN*%
G70*
G04*
G04 #@! TF.SameCoordinates,3D68E59D-D58F-4EE4-A00C-4EB088E58223*
G04*
G04*
G04 #@! TF.FilePolarity,Positive*
G04*
G01*
G75*
%ADD11C,0.01000*%
%ADD56O,0.07874X0.04331*%
%ADD57O,0.07087X0.04724*%
%ADD58R,0.06000X0.08000*%
%ADD59O,0.06000X0.08000*%
%ADD60C,0.02000*%
%ADD61C,0.03000*%
%ADD62R,0.06000X0.05000*%
G36*
X307442Y296058D02*
X163558D01*
X163558Y376942D01*
X307442D01*
Y296058D01*
D02*
G37*
%LPC*%
G36*
X279657Y365820D02*
X278669Y365690D01*
X277747Y365308D01*
X276956Y364701D01*
X276349Y363910D01*
X275968Y362989D01*
X275837Y362000D01*
Y360000D01*
X275968Y359011D01*
X276349Y358090D01*
X276956Y357299D01*
X277747Y356692D01*
X278669Y356310D01*
X279657Y356180D01*
X280646Y356310D01*
X281567Y356692D01*
X282359Y357299D01*
X282966Y358090D01*
X283347Y359011D01*
X283477Y360000D01*
Y362000D01*
X283347Y362989D01*
X282966Y363910D01*
X282359Y364701D01*
X281567Y365308D01*
X280646Y365690D01*
X279657Y365820D01*
D02*
G37*
G36*
X265500Y360313D02*
X204004D01*
X203501Y360213D01*
X203076Y359928D01*
X188666Y345518D01*
X188011Y345388D01*
X187420Y344993D01*
X187024Y344402D01*
X186886Y343705D01*
X187024Y343007D01*
X187420Y342416D01*
X188011Y342021D01*
X188708Y341882D01*
X189406Y342021D01*
X189997Y342416D01*
X190392Y343007D01*
X190522Y343662D01*
X204547Y357687D01*
X264956D01*
X267187Y355456D01*
Y336753D01*
X266816Y336197D01*
X266678Y335500D01*
X266816Y334803D01*
X267211Y334211D01*
X267803Y333816D01*
X268500Y333678D01*
X269197Y333816D01*
X269789Y334211D01*
X270184Y334803D01*
X270322Y335500D01*
X270184Y336197D01*
X269813Y336753D01*
Y356000D01*
X269713Y356502D01*
X269428Y356928D01*
X266428Y359928D01*
X266002Y360213D01*
X265500Y360313D01*
D02*
G37*
G36*
X184152Y330558D02*
X184138Y330555D01*
X184123Y330558D01*
X183852Y330553D01*
X183702Y330520D01*
X183549Y330488D01*
X183052Y330274D01*
X182924Y330186D01*
X182796Y330099D01*
X182417Y329712D01*
X182332Y329583D01*
X182246Y329453D01*
X182041Y328952D01*
X182012Y328799D01*
X181982Y328648D01*
X181982Y328106D01*
X182012Y327953D01*
X182041Y327803D01*
X182246Y327301D01*
X182332Y327172D01*
X182417Y327043D01*
X182796Y326656D01*
X182923Y326569D01*
X183052Y326481D01*
X183549Y326267D01*
X183702Y326235D01*
X183852Y326202D01*
X184123Y326197D01*
X184130Y326198D01*
X184137Y326197D01*
X184145Y326198D01*
X184152Y326197D01*
X184423Y326202D01*
X184573Y326235D01*
X184725Y326267D01*
X185223Y326481D01*
X185351Y326569D01*
X185479Y326656D01*
X185858Y327042D01*
X185943Y327172D01*
X186029Y327301D01*
X186234Y327802D01*
X186263Y327955D01*
X186293Y328106D01*
X186293Y328648D01*
X186263Y328801D01*
X186234Y328952D01*
X186029Y329453D01*
X185943Y329583D01*
X185858Y329712D01*
X185479Y330099D01*
X185352Y330185D01*
X185223Y330274D01*
X184726Y330488D01*
X184574Y330520D01*
X184423Y330553D01*
X184152Y330558D01*
D02*
G37*
G36*
X269000Y363813D02*
X200000D01*
X199498Y363713D01*
X199072Y363428D01*
X188458Y352814D01*
X187803Y352684D01*
X187211Y352289D01*
X186816Y351697D01*
X186678Y351000D01*
X186816Y350303D01*
X187211Y349711D01*
X187803Y349316D01*
X188500Y349178D01*
X189197Y349316D01*
X189789Y349711D01*
X190184Y350303D01*
X190314Y350958D01*
X200544Y361187D01*
X268456D01*
X274187Y355456D01*
Y343753D01*
X273816Y343197D01*
X273678Y342500D01*
X273816Y341803D01*
X274211Y341211D01*
X274340Y341125D01*
Y324429D01*
X271431Y321520D01*
X264848D01*
X264726Y321699D01*
X264626Y322020D01*
X264742Y322193D01*
X264803Y322500D01*
X264803Y355000D01*
X264742Y355307D01*
X264568Y355568D01*
X264307Y355742D01*
X264000Y355803D01*
X207000Y355803D01*
X206693Y355742D01*
X206432Y355568D01*
X206258Y355307D01*
X206197Y355000D01*
X206197Y328408D01*
X206258Y328101D01*
X206432Y327840D01*
X206693Y327666D01*
X207000Y327605D01*
X224500Y327605D01*
X224807Y327666D01*
X225068Y327840D01*
X225242Y328101D01*
X225303Y328408D01*
X225303Y341197D01*
X246197D01*
X246197Y322500D01*
X246258Y322193D01*
X246432Y321932D01*
X246693Y321758D01*
X246713Y321754D01*
Y321713D01*
X246922D01*
X247000Y321697D01*
X258538Y321697D01*
X258805Y321197D01*
X258609Y320904D01*
X258471Y320207D01*
X258609Y319510D01*
X259004Y318918D01*
X259595Y318523D01*
X260293Y318385D01*
X260990Y318523D01*
X261546Y318895D01*
X271975D01*
X272477Y318994D01*
X272903Y319279D01*
X276581Y322957D01*
X276866Y323383D01*
X276966Y323885D01*
Y341476D01*
X277184Y341803D01*
X277322Y342500D01*
X277184Y343197D01*
X276813Y343753D01*
Y356000D01*
X276713Y356502D01*
X276428Y356928D01*
X269928Y363428D01*
X269502Y363713D01*
X269000Y363813D01*
D02*
G37*
G36*
X183000Y323822D02*
X182303Y323684D01*
X181711Y323289D01*
X181687Y323252D01*
X181525D01*
X181023Y323152D01*
X180597Y322867D01*
X180072Y322342D01*
X179787Y321917D01*
X179687Y321414D01*
Y315086D01*
X179787Y314583D01*
X180072Y314158D01*
X180658Y313572D01*
X181084Y313287D01*
X181586Y313187D01*
X191422D01*
X191523Y313048D01*
X191644Y312687D01*
X191316Y312197D01*
X191178Y311500D01*
X191316Y310803D01*
X191711Y310211D01*
X192303Y309816D01*
X193000Y309678D01*
X193697Y309816D01*
X194253Y310187D01*
X251500D01*
X252002Y310287D01*
X252428Y310572D01*
X255726Y313870D01*
X256011Y314296D01*
X256111Y314798D01*
Y316460D01*
X256482Y317015D01*
X256621Y317713D01*
X256482Y318410D01*
X256087Y319001D01*
X255496Y319396D01*
X254798Y319535D01*
X254101Y319396D01*
X253509Y319001D01*
X253167Y318489D01*
X252894Y318445D01*
X252620Y318489D01*
X252278Y319001D01*
X251687Y319396D01*
X250989Y319535D01*
X250292Y319396D01*
X249701Y319001D01*
X249306Y318410D01*
X249167Y317713D01*
X249306Y317015D01*
X249677Y316460D01*
Y315533D01*
X248744Y314600D01*
X223274D01*
X223122Y315100D01*
X223289Y315211D01*
X223684Y315803D01*
X223822Y316500D01*
X223684Y317197D01*
X223289Y317789D01*
X222697Y318184D01*
X222226Y318278D01*
Y318787D01*
X222247Y318791D01*
X222838Y319186D01*
X223233Y319778D01*
X223372Y320475D01*
X223233Y321172D01*
X222838Y321764D01*
X222247Y322159D01*
X221550Y322298D01*
X220852Y322159D01*
X220261Y321764D01*
X219875Y321186D01*
X193835D01*
X193280Y321557D01*
X192582Y321696D01*
X191885Y321557D01*
X191294Y321162D01*
X190899Y320571D01*
X190760Y319874D01*
X190899Y319176D01*
X191294Y318585D01*
X191543Y318419D01*
X191391Y317919D01*
X186058D01*
X185977Y318328D01*
X185582Y318919D01*
X184990Y319314D01*
X184293Y319453D01*
X183596Y319314D01*
X183004Y318919D01*
X182813Y318632D01*
X182313Y318784D01*
Y319920D01*
X182699Y320237D01*
X183000Y320178D01*
X183697Y320316D01*
X184289Y320711D01*
X184684Y321303D01*
X184822Y322000D01*
X184684Y322697D01*
X184289Y323289D01*
X183697Y323684D01*
X183000Y323822D01*
D02*
G37*
G36*
X184152Y307802D02*
X184138Y307799D01*
X184123Y307802D01*
X183852Y307797D01*
X183702Y307764D01*
X183549Y307732D01*
X183052Y307518D01*
X182924Y307430D01*
X182796Y307343D01*
X182417Y306956D01*
X182332Y306826D01*
X182246Y306698D01*
X182041Y306196D01*
X182012Y306043D01*
X181982Y305892D01*
X181982Y305350D01*
X182012Y305197D01*
X182041Y305047D01*
X182246Y304545D01*
X182332Y304416D01*
X182417Y304287D01*
X182796Y303900D01*
X182923Y303813D01*
X183052Y303725D01*
X183549Y303511D01*
X183702Y303479D01*
X183852Y303446D01*
X184123Y303441D01*
X184130Y303442D01*
X184137Y303441D01*
X184145Y303442D01*
X184152Y303441D01*
X184423Y303446D01*
X184573Y303479D01*
X184725Y303511D01*
X185223Y303725D01*
X185351Y303813D01*
X185479Y303900D01*
X185858Y304286D01*
X185943Y304416D01*
X186029Y304545D01*
X186234Y305047D01*
X186263Y305199D01*
X186293Y305350D01*
X186293Y305892D01*
X186263Y306045D01*
X186234Y306196D01*
X186029Y306697D01*
X185943Y306827D01*
X185858Y306956D01*
X185479Y307343D01*
X185352Y307429D01*
X185223Y307518D01*
X184726Y307732D01*
X184574Y307764D01*
X184423Y307797D01*
X184152Y307802D01*
D02*
G37*
%LPD*%
G36*
X264000Y355000D02*
X264000Y322500D01*
X247000Y322500D01*
X247000Y342000D01*
X224500D01*
X224500Y328408D01*
X207000Y328408D01*
X207000Y355000D01*
X264000Y355000D01*
D02*
G37*
D11*
X271975Y320207D02*
X275653Y323885D01*
X275500Y342500D02*
X275653Y342347D01*
Y323885D02*
Y342347D01*
X260293Y320207D02*
X271975D01*
X268500Y335500D02*
Y356000D01*
X265500Y359000D02*
X268500Y356000D01*
X204004Y359000D02*
X265500D01*
X188708Y343705D02*
X204004Y359000D01*
X188500Y351000D02*
X200000Y362500D01*
X269000D02*
X275500Y356000D01*
X200000Y362500D02*
X269000D01*
X275500Y342500D02*
Y356000D01*
X254798Y314798D02*
Y317713D01*
X251500Y311500D02*
X254798Y314798D01*
X196000Y314500D02*
X197213Y313287D01*
X249287D02*
X250989Y314989D01*
X197213Y313287D02*
X249287D01*
X193000Y311500D02*
X251500D01*
X181000Y321414D02*
X181525Y321939D01*
X181000Y315086D02*
Y321414D01*
X182939Y321939D02*
X183000Y322000D01*
X181525Y321939D02*
X182939D01*
X181000Y315086D02*
X181586Y314500D01*
X196000D01*
X185379Y316606D02*
X221894D01*
X184354Y317630D02*
X185379Y316606D01*
X184293Y317630D02*
X184354D01*
X221894Y316606D02*
X222000Y316500D01*
X250989Y314989D02*
Y317713D01*
X220677Y319874D02*
X221279Y320475D01*
X221550D01*
X192582Y319874D02*
X220677D01*
X218000Y331500D02*
X218500Y332000D01*
X220500Y336500D02*
X221000D01*
X218500Y334500D02*
X220500Y336500D01*
X218500Y332000D02*
Y334500D01*
D56*
X186186Y334028D02*
D03*
Y299973D02*
D03*
D57*
X169650Y334028D02*
D03*
Y299973D02*
D03*
D58*
X289500Y361000D02*
D03*
D59*
X279657D02*
D03*
D60*
X203500Y301000D02*
D03*
X167000Y346500D02*
D03*
Y357500D02*
D03*
Y369000D02*
D03*
X171500Y308500D02*
D03*
Y317500D02*
D03*
Y326000D02*
D03*
X301500Y357500D02*
D03*
Y367000D02*
D03*
X236500Y371500D02*
D03*
X225000D02*
D03*
X188708Y343705D02*
D03*
X188500Y351000D02*
D03*
X268500Y335500D02*
D03*
X260293Y320207D02*
D03*
X275500Y342500D02*
D03*
X193000Y311500D02*
D03*
X192582Y319874D02*
D03*
X254798Y317713D02*
D03*
X250989D02*
D03*
X222000Y316500D02*
D03*
X221550Y320475D02*
D03*
X184293Y317630D02*
D03*
X183000Y322000D02*
D03*
D61*
X223500Y306000D02*
D03*
X254000Y309500D02*
D03*
X241500Y308000D02*
D03*
X235500Y322000D02*
D03*
X231500D02*
D03*
X235500Y326000D02*
D03*
X231500D02*
D03*
X235500Y330000D02*
D03*
X231500D02*
D03*
X209500Y332000D02*
D03*
Y336500D02*
D03*
X214000Y332000D02*
D03*
X257000Y325000D02*
D03*
X261500Y334000D02*
D03*
Y325000D02*
D03*
X257000Y334000D02*
D03*
X261500Y329500D02*
D03*
X257000D02*
D03*
X214000Y336500D02*
D03*
X209500Y341000D02*
D03*
X214000D02*
D03*
D62*
X221000Y336500D02*
D03*
X230000D02*
D03*
X241500D02*
D03*
X250500D02*
D03*
X241500Y325000D02*
D03*
X250500D02*
D03*
M02*
